<?xml version="1.0" standalone="no"?>
<!DOCTYPE svg PUBLIC "-//W3C//DTD SVG 20010904//EN"
 "http://www.w3.org/TR/2001/REC-SVG-20010904/DTD/svg10.dtd">
<svg version="1.0" xmlns="http://www.w3.org/2000/svg"
 width="30.000000pt" height="30.000000pt" viewBox="0 0 512.000000 512.000000"
 preserveAspectRatio="xMidYMid meet">

<g transform="translate(0.000000,512.000000) scale(0.100000,-0.100000)"
fill="#492270" stroke="">
<path d="M3181 4230 c-405 -55 -693 -384 -693 -790 0 -447 345 -792 792 -792
447 0 792 345 792 792 0 270 -125 508 -345 659 -149 102 -369 155 -546 131z
m269 -171 c116 -32 185 -74 280 -169 134 -133 190 -266 190 -445 0 -188 -56
-323 -189 -456 -133 -132 -268 -189 -453 -189 -179 0 -319 59 -449 189 -131
131 -189 270 -189 451 0 181 59 320 189 451 132 131 265 187 446 188 72 1 121
-5 175 -20z"/>
<path d="M3180 3600 l0 -280 240 0 240 0 0 80 0 80 -160 0 -160 0 0 200 0 200
-80 0 -80 0 0 -280z"/>
<path d="M415 2605 c-81 -29 -75 25 -75 -725 l0 -667 23 -33 c12 -18 35 -43
50 -54 27 -20 41 -21 376 -24 345 -3 348 -3 375 19 37 29 56 76 56 140 0 37 4
50 13 47 6 -3 321 -116 698 -252 l685 -247 610 226 c335 125 794 296 1019 380
226 84 424 159 441 166 l31 14 -194 280 c-106 154 -197 281 -201 283 -4 1
-208 -69 -452 -157 l-445 -159 -7 74 c-11 115 -64 194 -158 238 -42 20 -65 21
-379 24 l-334 3 -61 43 c-82 58 -183 108 -286 140 -150 48 -242 56 -626 56
l-352 0 -4 75 c-3 61 -7 79 -26 97 -22 23 -24 23 -380 25 -289 2 -365 0 -397
-12z m645 -745 l0 -600 -280 0 -280 0 0 600 0 600 280 0 280 0 0 -600z m950
389 c164 -26 334 -98 423 -179 l55 -50 352 0 352 0 34 -34 c33 -33 34 -36 34
-120 l0 -86 -489 0 c-479 0 -489 0 -515 -21 -35 -28 -36 -80 -1 -114 l24 -25
536 0 536 0 47 24 c94 47 854 321 872 314 10 -3 211 -290 207 -294 -3 -3 -195
-75 -1182 -439 -368 -137 -677 -248 -685 -247 -8 1 -323 113 -700 250 l-685
248 -3 392 -2 392 362 0 c203 0 392 -5 428 -11z"/>
</g>
</svg>
