<?xml version="1.0" standalone="no"?>
<!DOCTYPE svg PUBLIC "-//W3C//DTD SVG 20010904//EN"
 "http://www.w3.org/TR/2001/REC-SVG-20010904/DTD/svg10.dtd">
<svg version="1.0" xmlns="http://www.w3.org/2000/svg"
 width="64.000000pt" height="64.000000pt" viewBox="0 0 260.000000 260.000000"
 preserveAspectRatio="xMidYMid meet">

<g transform="translate(0.000000,260.000000) scale(0.100000,-0.100000)"
fill="#FFC245" stroke="none">
<path d="M1085 2540 c-33 -6 -71 -14 -85 -19 -14 -6 -45 -15 -70 -21 -90 -22
-235 -92 -350 -167 -99 -66 -259 -230 -333 -341 -38 -57 -137 -254 -137 -273
0 -5 -9 -34 -19 -64 -19 -53 -27 -97 -51 -279 -10 -78 -6 -136 21 -316 11 -72
56 -224 75 -255 6 -11 15 -31 19 -45 10 -33 88 -161 143 -235 25 -33 82 -96
127 -140 178 -173 397 -286 645 -333 114 -22 346 -22 460 0 366 70 664 280
862 608 25 41 48 86 53 100 4 14 13 34 19 45 19 31 64 183 75 255 27 180 31
238 21 316 -24 182 -32 226 -51 279 -10 30 -19 59 -19 64 0 19 -99 216 -137
273 -74 111 -234 275 -333 341 -119 78 -255 143 -365 172 -33 9 -76 21 -95 26
-47 14 -400 20 -475 9z m702 -580 c62 -37 63 -43 63 -422 l0 -342 -52 -53
c-29 -29 -58 -53 -65 -53 -10 0 -13 78 -13 383 l0 382 -405 -3 -405 -2 2 -558
3 -557 286 -3 286 -2 37 -56 c20 -30 34 -59 31 -64 -4 -6 -135 -10 -335 -10
-317 0 -330 1 -365 21 -68 40 -65 14 -65 680 l0 601 39 39 39 39 443 0 c423 0
446 -1 476 -20z m-547 -265 l0 -75 -125 0 -125 0 0 68 c0 38 3 72 7 75 3 4 60
7 125 7 l118 0 0 -75z m406 -188 c3 -13 4 -41 2 -63 l-3 -39 -102 -3 -103 -3
0 59 c0 32 3 62 7 65 3 4 48 7 99 7 90 0 94 -1 100 -23z m-286 -47 l0 -60
-182 2 -183 3 -3 44 c-5 74 -13 71 188 71 l180 0 0 -60z m286 -134 c3 -13 4
-38 2 -57 l-3 -34 -102 -3 -103 -3 0 54 c0 30 3 57 7 60 3 4 48 7 99 7 90 0
94 -1 100 -24z m-286 -46 l0 -60 -182 2 -183 3 -3 44 c-5 74 -13 71 188 71
l180 0 0 -60z m680 -134 c0 -7 -18 -30 -41 -51 -111 -108 -242 -288 -334 -459
-5 -10 -14 -19 -20 -19 -5 1 -40 51 -77 113 l-67 112 19 44 c11 23 20 48 20
53 0 26 38 7 69 -35 l34 -45 30 38 c47 60 247 256 296 292 l45 31 13 -31 c7
-17 13 -37 13 -43z m-395 -41 l0 -50 -102 -3 -103 -3 0 56 0 56 103 -3 102 -3
0 -50z"/>
</g>
</svg>
