<?xml version="1.0" standalone="no"?>
<!DOCTYPE svg PUBLIC "-//W3C//DTD SVG 20010904//EN"
 "http://www.w3.org/TR/2001/REC-SVG-20010904/DTD/svg10.dtd">
<svg version="1.0" xmlns="http://www.w3.org/2000/svg"
 width="256.000000pt" height="256.000000pt" viewBox="0 0 256.000000 256.000000"
 preserveAspectRatio="xMidYMid meet">

<g transform="translate(0.000000,256.000000) scale(0.100000,-0.100000)"
fill="#000000" stroke="none">
<path d="M2265 234 c-283 -230 -271 -219 -254 -229 7 -5 10 -4 6 2 -9 14 22
40 31 27 9 -11 72 -12 90 -1 7 5 12 3 12 -5 1 -9 4 -8 13 3 7 9 19 16 28 16
21 0 79 23 79 32 0 4 10 7 22 8 12 1 26 9 30 18 5 8 13 15 17 15 11 0 101 90
101 101 0 4 8 13 18 18 9 6 13 11 8 11 -5 0 -3 7 4 15 7 8 9 15 4 15 -5 0 -3
4 5 9 8 5 16 26 16 45 1 20 10 46 21 58 13 16 14 19 2 10 -10 -8 -18 -9 -22
-3 -4 5 2 14 11 20 10 6 14 10 8 10 -5 0 -118 -88 -250 -195z m215 152 c-13
-11 -361 -293 -415 -335 -19 -14 -19 -14 -5 1 19 21 423 348 429 348 3 0 -1
-6 -9 -14z"/>
</g>
</svg>
