<?xml version="1.0" standalone="no"?>
<!DOCTYPE svg PUBLIC "-//W3C//DTD SVG 20010904//EN"
 "http://www.w3.org/TR/2001/REC-SVG-20010904/DTD/svg10.dtd">
<svg version="1.0" xmlns="http://www.w3.org/2000/svg"
 width="32.000000pt" height="32.000000pt" viewBox="0 0 32.000000 32.000000"
 preserveAspectRatio="xMidYMid meet">

<g transform="translate(0.000000,32.000000) scale(0.100000,-0.100000)"
fill="#492270" stroke="rect">
<path d="M16 304 c-24 -23 -20 -46 13 -77 23 -21 39 -27 75 -27 34 0 46 -4 46
-15 0 -8 -4 -15 -10 -15 -5 0 -10 -4 -10 -10 0 -5 14 -10 30 -10 17 0 30 5 30
10 0 6 -4 10 -10 10 -5 0 -10 7 -10 15 0 11 12 15 48 15 39 1 52 6 76 30 22
22 27 35 22 54 -9 37 -53 46 -78 16 -24 -29 -23 -36 8 -65 l27 -25 -52 0 c-28
0 -51 5 -51 10 0 6 5 10 10 10 6 0 16 11 22 25 9 21 8 28 -7 45 -10 11 -26 20
-35 20 -9 0 -25 -9 -35 -20 -15 -17 -16 -24 -7 -45 6 -14 16 -25 22 -25 5 0
10 -4 10 -10 0 -5 -23 -10 -51 -10 l-52 0 27 25 c30 28 31 33 10 63 -18 26
-46 28 -68 6z m48 0 c9 -3 16 -17 16 -29 0 -20 -5 -24 -31 -23 -34 1 -48 21
-29 43 14 17 21 18 44 9z m126 -14 c15 -27 6 -38 -29 -36 -38 2 -45 10 -31 35
14 27 46 27 60 1z m110 5 c19 -22 5 -42 -29 -43 -26 -1 -31 3 -31 23 0 34 38
47 60 20z"/>
<path d="M37 293 c-12 -11 -8 -23 8 -23 8 0 15 7 15 15 0 16 -12 20 -23 8z"/>
<path d="M145 291 c-7 -12 12 -24 25 -16 11 7 4 25 -10 25 -5 0 -11 -4 -15 -9z"/>
<path d="M260 286 c0 -9 7 -16 16 -16 9 0 14 5 12 12 -6 18 -28 21 -28 4z"/>
<path d="M0 68 l0 -50 38 5 c20 2 63 -2 94 -11 l56 -15 66 49 c36 26 66 53 66
59 0 8 -49 11 -160 12 l-160 0 0 -49z m50 2 c0 -33 -3 -40 -20 -40 -17 0 -20
7 -20 40 0 33 3 40 20 40 17 0 20 -7 20 -40z m170 20 c10 -6 -5 -10 -45 -10
l-60 -1 37 -15 c34 -14 39 -14 77 6 41 20 57 38 24 26 -10 -4 -14 -4 -10 1 5
4 23 8 40 9 l32 2 -30 -24 c-92 -74 -94 -75 -162 -57 -58 14 -63 17 -63 43 0
16 6 31 13 34 17 7 128 -3 147 -14z"/>
</g>
</svg>
