<?xml version="1.0" standalone="no"?>
<!DOCTYPE svg PUBLIC "-//W3C//DTD SVG 20010904//EN"
 "http://www.w3.org/TR/2001/REC-SVG-20010904/DTD/svg10.dtd">
<svg version="1.0" xmlns="http://www.w3.org/2000/svg"
 width="32.000000pt" height="32.000000pt" viewBox="0 0 32.000000 32.000000"
 preserveAspectRatio="xMidYMid meet">

<g transform="translate(0.000000,32.000000) scale(0.100000,-0.100000)"
fill="#492270" stroke="none">
<path d="M250 300 c0 -6 7 -13 15 -16 30 -12 6 -74 -29 -74 -12 0 -16 -10 -17
-47 0 -39 -2 -44 -9 -25 -7 15 -18 22 -37 22 l-27 0 32 33 c43 44 41 60 -2 18
-33 -32 -56 -35 -56 -7 0 7 9 21 20 31 11 10 18 20 15 23 -5 5 -85 -78 -85
-89 0 -3 9 -14 20 -24 15 -14 20 -31 20 -72 0 -29 -4 -53 -10 -53 -5 0 -10 9
-10 19 0 13 -8 21 -23 23 -21 3 -22 9 -28 103 l-5 100 -2 -92 c-2 -81 -4 -93
-19 -94 -14 0 -13 -2 4 -9 13 -5 23 -14 23 -19 0 -5 9 -8 20 -6 12 2 20 -2 20
-10 0 -9 -15 -15 -42 -18 -34 -3 -30 -4 20 -5 l62 -2 0 50 0 50 55 0 55 0 0
45 0 45 45 0 c47 0 56 9 30 30 -8 7 -15 28 -15 46 0 27 -4 34 -20 34 -11 0
-20 -5 -20 -10z m50 -80 c0 -5 -7 -10 -16 -10 -8 0 -12 5 -9 10 3 6 10 10 16
10 5 0 9 -4 9 -10z m-163 -53 c10 -12 27 -22 37 -22 11 0 21 -6 24 -12 2 -9
-8 -13 -30 -13 -24 0 -42 8 -61 28 -15 16 -24 31 -20 35 12 13 32 7 50 -16z"/>
</g>
</svg>
