<?xml version="1.0" standalone="no"?>
<!DOCTYPE svg PUBLIC "-//W3C//DTD SVG 20010904//EN"
 "http://www.w3.org/TR/2001/REC-SVG-20010904/DTD/svg10.dtd">
<svg version="1.0" xmlns="http://www.w3.org/2000/svg"
 width="32.000000pt" height="32.000000pt" viewBox="0 0 32.000000 32.000000"
 preserveAspectRatio="xMidYMid meet">

<g transform="translate(0.000000,32.000000) scale(0.100000,-0.100000)"
fill="#492270" stroke="none">
<path d="M250 275 c0 -19 -4 -35 -10 -35 -5 0 -10 -5 -10 -11 0 -8 4 -8 13 0
10 8 17 7 25 -1 9 -9 12 -9 12 0 0 7 -4 12 -10 12 -20 0 -10 21 16 32 l25 12
-23 13 c-34 18 -38 16 -38 -22z m40 10 c0 -2 -7 -5 -15 -9 -9 -3 -15 0 -15 9
0 9 6 12 15 9 8 -4 15 -7 15 -9z"/>
<path d="M123 204 c-7 -19 21 -44 49 -44 22 0 22 4 2 35 -19 29 -42 32 -51 9z
m37 -9 c0 -8 5 -15 12 -15 6 0 9 -3 5 -6 -3 -3 -15 -3 -26 1 -24 7 -29 35 -6
35 8 0 15 -7 15 -15z"/>
<path d="M200 185 c0 -35 0 -35 -45 -35 l-45 0 -2 -37 c0 -21 0 -50 1 -65 2
-27 0 -28 -43 -28 -41 0 -45 2 -49 28 -4 25 -4 25 -6 -5 l-1 -33 150 0 150 0
-2 108 -2 107 -3 -102 -4 -103 -45 0 -45 0 3 100 c2 55 0 100 -4 100 -5 0 -8
-16 -8 -35z m0 -105 l0 -60 -40 0 -40 0 0 60 0 60 40 0 40 0 0 -60z"/>
<path d="M29 134 c-11 -14 -10 -19 10 -35 13 -11 29 -19 37 -19 20 0 27 19 10
26 -9 3 -16 14 -17 23 0 10 -2 12 -6 3 -3 -7 1 -19 7 -27 16 -19 0 -19 -25 -1
-16 12 -17 16 -6 30 7 9 11 16 8 16 -2 0 -11 -7 -18 -16z"/>
</g>
</svg>
